<?xml version="1.0" encoding="utf-8"?><svg id="Layer_1" data-name="Layer 1" xmlns="http://www.w3.org/2000/svg" viewBox="0 0 340.16 96.49"><defs><style>.cls-1,.cls-3{fill:#e50045;}.cls-2{opacity:0.99;}.cls-3{opacity:0.97;}</style></defs><title>IST Logo Red SVG</title><path class="cls-1" d="M145,53.86a48.26,48.26,0,0,1-40.8,47.67,48.25,48.25,0,1,0,0-95.34A48.25,48.25,0,0,1,145,53.86Z" transform="translate(-7.09 -5.61)"/><path class="cls-1" d="M168.21,53.86a48.26,48.26,0,0,1-40.8,47.67,48.25,48.25,0,1,0,0-95.34A48.25,48.25,0,0,1,168.21,53.86Z" transform="translate(-7.09 -5.61)"/><path class="cls-1" d="M45.15,53.86A48.25,48.25,0,0,1,86,6.19a48.24,48.24,0,1,0,0,95.34A48.26,48.26,0,0,1,45.15,53.86Z" transform="translate(-7.09 -5.61)"/><path class="cls-1" d="M22,53.86A48.25,48.25,0,0,1,62.78,6.19a48.24,48.24,0,1,0,0,95.34A48.26,48.26,0,0,1,22,53.86Z" transform="translate(-7.09 -5.61)"/><path class="cls-1" d="M54.91,33H74l0,1.14V74.76h-19V73.63h5.63V34.09H54.91Z" transform="translate(-7.09 -5.61)"/><path class="cls-1" d="M94,74.12a8.82,8.82,0,0,0,5.2-1.59,5.45,5.45,0,0,0,2.26-4.79A5.63,5.63,0,0,0,99,62.83a21.73,21.73,0,0,0-6.93-3,47.67,47.67,0,0,1-6.52-2.21,16.77,16.77,0,0,1-3.85-2.47q-3.65-3-3.65-9.46a12.34,12.34,0,0,1,3.73-9Q85.51,33,92,33l11.71,0a1.53,1.53,0,0,1,1.54,1.54l0,11h-.95a36.46,36.46,0,0,0-5.9-8.2,9.35,9.35,0,0,0-6.7-3.09,8.46,8.46,0,0,0-5.61,1.68,5.49,5.49,0,0,0-2,4.46,4.78,4.78,0,0,0,2.38,4.29,21.16,21.16,0,0,0,5.84,2.44c2.32.63,3.83,1.06,4.56,1.3s1.63.55,2.7,1a14,14,0,0,1,2.65,1.29,19.2,19.2,0,0,1,2.17,1.7,8.16,8.16,0,0,1,1.8,2.27,13.52,13.52,0,0,1,1.58,6.7,13.55,13.55,0,0,1-4,10.19c-2.65,2.57-6.13,3.26-10.44,3.26H80a1.54,1.54,0,0,1-1.54-1.54l0-12.44h1c1.72,3.41,3.29,6.38,6,8.93S91,74.12,94,74.12Z" transform="translate(-7.09 -5.61)"/><path class="cls-1" d="M135.27,34.48V48h-1.13q-2.62-8-4.66-10.84a6.7,6.7,0,0,0-5.85-2.9h-.72v39.3H128v1.25h-16.7l0-1.25V33h22.5A1.52,1.52,0,0,1,135.27,34.48Z" transform="translate(-7.09 -5.61)"/><g class="cls-2"><path class="cls-1" d="M196.26,33V31.86l2.73-.18V14.09l-2.73-.28V12.72h7.42v1.09l-2.71.26V31.68l2.71.18V33Z" transform="translate(-7.09 -5.61)"/><path class="cls-1" d="M206,33V31.86l1.86-.18V19.44L205.63,19V17.93l3.35-.4h.07l.47.4v1.26l0,.71a8,8,0,0,1,1.11-.81,12,12,0,0,1,1.47-.79,11.29,11.29,0,0,1,1.63-.59,6.39,6.39,0,0,1,1.62-.23,5.05,5.05,0,0,1,2.18.4,3,3,0,0,1,1.32,1.19,5.41,5.41,0,0,1,.66,2,19.51,19.51,0,0,1,.18,2.83v7.79l2.07.17V33h-5.9V31.86l1.91-.17V23.9a16.54,16.54,0,0,0-.11-2.13,3.84,3.84,0,0,0-.46-1.51,2.17,2.17,0,0,0-1-.9,3.93,3.93,0,0,0-1.67-.3,4.45,4.45,0,0,0-1.27.19,9.21,9.21,0,0,0-1.3.47,12.9,12.9,0,0,0-1.22.65,9.81,9.81,0,0,0-1,.7V31.68l2,.18V33Z" transform="translate(-7.09 -5.61)"/><path class="cls-1" d="M223.68,32.12V28.74H225l.38,2.14a1.67,1.67,0,0,0,.47.43,4.47,4.47,0,0,0,.79.38,5.37,5.37,0,0,0,1,.28,5.78,5.78,0,0,0,1.1.11,4.3,4.3,0,0,0,2.73-.69,2.34,2.34,0,0,0,.83-1.89,2.12,2.12,0,0,0-.26-1.09,2.77,2.77,0,0,0-.77-.85,7,7,0,0,0-1.29-.71q-.78-.33-1.8-.69a13.18,13.18,0,0,1-1.87-.84,5.47,5.47,0,0,1-1.34-1,3.84,3.84,0,0,1-.81-1.3,4.74,4.74,0,0,1-.27-1.66,3,3,0,0,1,.43-1.61,4,4,0,0,1,1.15-1.19,5.36,5.36,0,0,1,1.66-.75,7.08,7.08,0,0,1,2-.26,9.39,9.39,0,0,1,1.46.1,8.47,8.47,0,0,1,1.2.24,6.78,6.78,0,0,1,.89.28l.55.23v3.19H232l-.42-2a.94.94,0,0,0-.37-.33,3,3,0,0,0-.65-.25,5.76,5.76,0,0,0-.81-.17,6.84,6.84,0,0,0-.91-.06,4.44,4.44,0,0,0-1.22.14,3.38,3.38,0,0,0-1,.44,2.37,2.37,0,0,0-.7.71,1.82,1.82,0,0,0-.26,1,2.59,2.59,0,0,0,.32,1.33,3.21,3.21,0,0,0,.84.92,5.62,5.62,0,0,0,1.19.65l1.35.54c.6.24,1.19.49,1.76.74a7.88,7.88,0,0,1,1.51.88,4.19,4.19,0,0,1,1.05,1.21A3.54,3.54,0,0,1,234,29a3.81,3.81,0,0,1-1.57,3.19,5.36,5.36,0,0,1-1.77.83,8.34,8.34,0,0,1-2.25.29,8.75,8.75,0,0,1-1.29-.11,12.31,12.31,0,0,1-1.37-.28,12,12,0,0,1-1.23-.37A5.58,5.58,0,0,1,223.68,32.12Z" transform="translate(-7.09 -5.61)"/><path class="cls-1" d="M237.76,30.27V19.38h-2.11v-1l.43-.07.48-.09.43-.11a1.3,1.3,0,0,0,.27-.11.83.83,0,0,0,.34-.3,2.65,2.65,0,0,0,.22-.5c.05-.16.12-.38.19-.65l.24-.85q.12-.44.21-.81c.06-.25.1-.44.12-.55h1.09v3.56h5v1.52h-5v9.08c0,.75,0,1.35.06,1.78a2.39,2.39,0,0,0,.25,1,.77.77,0,0,0,.53.4,3.81,3.81,0,0,0,.92.08h0a7.43,7.43,0,0,0,.91-.06c.32-.05.64-.11,1-.18s.6-.16.86-.25a5.06,5.06,0,0,0,.64-.25h0l.3.93a4.11,4.11,0,0,1-.82.46c-.37.16-.76.31-1.19.45s-.86.24-1.3.33a6.1,6.1,0,0,1-1.21.13h0a4.55,4.55,0,0,1-1.15-.13,2.12,2.12,0,0,1-.89-.47,2.41,2.41,0,0,1-.57-.92A4.42,4.42,0,0,1,237.76,30.27Z" transform="translate(-7.09 -5.61)"/><path class="cls-1" d="M246.74,33V31.86l2.46-.17V19.44L247,19V17.93l3.63-.4h.07l.46.4V31.69l2.46.17V33Zm2.95-18.33a1.11,1.11,0,0,1-.93-.42,1.6,1.6,0,0,1-.33-1,2.15,2.15,0,0,1,.08-.62,1.56,1.56,0,0,1,.27-.53,1.22,1.22,0,0,1,.46-.38,1.33,1.33,0,0,1,.65-.14h0a1.25,1.25,0,0,1,.56.12,1.49,1.49,0,0,1,.41.34,1.26,1.26,0,0,1,.24.46,1.59,1.59,0,0,1,.08.53,2.18,2.18,0,0,1-.09.63,1.52,1.52,0,0,1-.27.54,1.37,1.37,0,0,1-.46.36,1.7,1.7,0,0,1-.67.13Z" transform="translate(-7.09 -5.61)"/><path class="cls-1" d="M257.33,30.27V19.38h-2.1v-1l.42-.07.48-.09.44-.11.27-.11a.8.8,0,0,0,.33-.3,3.43,3.43,0,0,0,.23-.5c.05-.16.11-.38.19-.65s.15-.56.23-.85.15-.56.21-.81a3.53,3.53,0,0,0,.12-.55h1.09v3.56h5v1.52h-5v9.08c0,.75,0,1.35.06,1.78a2.56,2.56,0,0,0,.25,1,.77.77,0,0,0,.53.4,3.87,3.87,0,0,0,.92.08h0a7.31,7.31,0,0,0,.91-.06c.33-.05.64-.11.95-.18s.6-.16.87-.25a5.06,5.06,0,0,0,.64-.25h0l.31.93a4.56,4.56,0,0,1-.83.46c-.36.16-.76.31-1.18.45s-.86.24-1.3.33a6.17,6.17,0,0,1-1.21.13h0a4.63,4.63,0,0,1-1.16-.13,2.08,2.08,0,0,1-.88-.47,2.19,2.19,0,0,1-.57-.92A4.4,4.4,0,0,1,257.33,30.27Z" transform="translate(-7.09 -5.61)"/><path class="cls-1" d="M278.72,33.19a1.8,1.8,0,0,1-.94-.2c-.23-.13-.34-.42-.34-.86V30.91a10.33,10.33,0,0,1-1,.8,8.63,8.63,0,0,1-1.26.77,8.5,8.5,0,0,1-1.43.56,5.39,5.39,0,0,1-1.53.22,5.59,5.59,0,0,1-2.13-.35,3,3,0,0,1-1.39-1.07,4.81,4.81,0,0,1-.77-1.85,12.91,12.91,0,0,1-.23-2.66V19.21l-1.65-.44v-.91l3.1-.32h0l.45.3v9.09a16.86,16.86,0,0,0,.12,2.16,3.91,3.91,0,0,0,.47,1.48,2.14,2.14,0,0,0,1,.86,4.11,4.11,0,0,0,1.62.27,5,5,0,0,0,1.34-.18,7.47,7.47,0,0,0,1.23-.47,6.42,6.42,0,0,0,1.06-.62,7.67,7.67,0,0,0,.81-.63V19.22l-2.15-.45v-.91l3.46-.32h0l.59.3v14h1.73l0,1-1,.25A4.61,4.61,0,0,1,278.72,33.19Z" transform="translate(-7.09 -5.61)"/><path class="cls-1" d="M284.7,30.27V19.38h-2.11v-1l.43-.07.48-.09.43-.11a1.3,1.3,0,0,0,.27-.11.83.83,0,0,0,.34-.3,2.65,2.65,0,0,0,.22-.5c.05-.16.12-.38.19-.65l.24-.85q.12-.44.21-.81c.06-.25.1-.44.12-.55h1.09v3.56h5v1.52h-5v9.08c0,.75,0,1.35.06,1.78a2.39,2.39,0,0,0,.25,1,.77.77,0,0,0,.53.4,3.81,3.81,0,0,0,.92.08h0a7.43,7.43,0,0,0,.91-.06c.32-.05.64-.11.95-.18s.6-.16.86-.25a5.06,5.06,0,0,0,.64-.25h0l.3.93a4.11,4.11,0,0,1-.82.46c-.37.16-.76.31-1.19.45s-.86.24-1.3.33a6.1,6.1,0,0,1-1.21.13h0a4.55,4.55,0,0,1-1.15-.13,2.12,2.12,0,0,1-.89-.47,2.41,2.41,0,0,1-.57-.92A4.42,4.42,0,0,1,284.7,30.27Z" transform="translate(-7.09 -5.61)"/><path class="cls-1" d="M300.27,33.26a6.4,6.4,0,0,1-2.8-.58,5.64,5.64,0,0,1-2-1.65,7.28,7.28,0,0,1-1.24-2.51,11.55,11.55,0,0,1-.42-3.21,9.09,9.09,0,0,1,.53-3.19,7.66,7.66,0,0,1,1.45-2.49,6.5,6.5,0,0,1,4.93-2.21,5,5,0,0,1,3.72,1.39,5.76,5.76,0,0,1,1.43,4c0,.51,0,.95,0,1.32a4,4,0,0,1-.13,1h-9.86v.23a1.55,1.55,0,0,0,0,.22,9.14,9.14,0,0,0,.46,2.79,6.07,6.07,0,0,0,1.1,2A4.26,4.26,0,0,0,299,31.52a4.64,4.64,0,0,0,1.9.38,6.26,6.26,0,0,0,1.2-.12,9,9,0,0,0,1.19-.31,7.37,7.37,0,0,0,1.06-.47,4.18,4.18,0,0,0,.82-.56l.39.91a5.35,5.35,0,0,1-1,.75,8,8,0,0,1-1.28.61,8.72,8.72,0,0,1-1.46.4A8,8,0,0,1,300.27,33.26Zm-.1-14.48a4.76,4.76,0,0,0-1.63.27,3.36,3.36,0,0,0-1.31.89,5,5,0,0,0-.92,1.6,8.55,8.55,0,0,0-.45,2.4h7.82c0-.2,0-.41,0-.62s0-.41,0-.62a6,6,0,0,0-.2-1.58,3.42,3.42,0,0,0-.65-1.24,3.07,3.07,0,0,0-1.11-.81A4.1,4.1,0,0,0,300.17,18.78Z" transform="translate(-7.09 -5.61)"/><path class="cls-3" d="M312.3,27.12a11.06,11.06,0,0,1,.93-4.64,10.69,10.69,0,0,1,1.13-2,7.62,7.62,0,0,1,1.51-1.59,7,7,0,0,1,1.84-1,5.94,5.94,0,0,1,2.11-.38,5.77,5.77,0,0,1,2.24.41,4.56,4.56,0,0,1,1.64,1.2,5.18,5.18,0,0,1,1,1.92,8.89,8.89,0,0,1,.37,2.59,11.49,11.49,0,0,1-.93,4.61,10.69,10.69,0,0,1-1.13,2,8.76,8.76,0,0,1-1.5,1.59,6.6,6.6,0,0,1-1.84,1.05,5.94,5.94,0,0,1-2.11.38,5.76,5.76,0,0,1-2.23-.41,4.48,4.48,0,0,1-1.65-1.19,5.18,5.18,0,0,1-1-1.92A9.16,9.16,0,0,1,312.3,27.12Zm5.64,4.81a3.36,3.36,0,0,0,1.54-.36,4.79,4.79,0,0,0,1.27-1,6.15,6.15,0,0,0,1-1.45,11.24,11.24,0,0,0,.71-1.75,11.9,11.9,0,0,0,.42-1.88,15,15,0,0,0,.12-1.85,9,9,0,0,0-.24-2,4.27,4.27,0,0,0-.66-1.53,2.9,2.9,0,0,0-1.09-1,3.59,3.59,0,0,0-3.09,0,4.6,4.6,0,0,0-1.28,1,6.76,6.76,0,0,0-1,1.45,10.31,10.31,0,0,0-.7,1.75,10.77,10.77,0,0,0-.41,1.89,12.05,12.05,0,0,0-.12,1.87,6.06,6.06,0,0,0,.93,3.58A3,3,0,0,0,317.94,31.93Z" transform="translate(-7.09 -5.61)"/><path class="cls-3" d="M326.92,34.63l1.94-15.5H327l.17-.82,1.94-.65.2-1.31a7.86,7.86,0,0,1,.69-2.17,7.54,7.54,0,0,1,1.23-1.77,6.06,6.06,0,0,1,1.59-1.2,3.93,3.93,0,0,1,1.8-.45,9.42,9.42,0,0,1,1.06.06,3.51,3.51,0,0,1,1,.29l-.6,1.77a4.93,4.93,0,0,0-.74-.38,3,3,0,0,0-1.2-.2,2.08,2.08,0,0,0-1.08.29,2.65,2.65,0,0,0-.85.79,4.74,4.74,0,0,0-.62,1.21,7.72,7.72,0,0,0-.35,1.57l-.19,1.44h3.53l-.17,1.53h-3.54L329,33.94a11,11,0,0,1-.55,2.39,6.88,6.88,0,0,1-1,1.83,4.22,4.22,0,0,1-1.36,1.18,3.74,3.74,0,0,1-1.74.44c-.43,0-.85,0-1.26-.05a6,6,0,0,1-.89-.14l.53-1.8a2.25,2.25,0,0,0,.31.1l.56.16.66.13a3.62,3.62,0,0,0,.63,0,1.27,1.27,0,0,0,.79-.26,2.21,2.21,0,0,0,.55-.75,5.06,5.06,0,0,0,.39-1.14C326.76,35.64,326.85,35.15,326.92,34.63Z" transform="translate(-7.09 -5.61)"/><path class="cls-1" d="M202.34,63.22a11.22,11.22,0,0,1-2.1-.19,17.53,17.53,0,0,1-1.72-.41c-.5-.15-.94-.29-1.3-.43a3.12,3.12,0,0,0-.85-.22l.22-4.86h1.25l.35,3.67a3.35,3.35,0,0,0,.68.43,5.26,5.26,0,0,0,1,.39,9.4,9.4,0,0,0,1.23.27,9,9,0,0,0,1.4.11,6.75,6.75,0,0,0,2.06-.28,4.13,4.13,0,0,0,1.5-.8,3.23,3.23,0,0,0,.91-1.25,4.21,4.21,0,0,0,.31-1.62,3,3,0,0,0-.4-1.6,3.88,3.88,0,0,0-1.07-1.19,8.25,8.25,0,0,0-1.58-.94c-.61-.28-1.26-.56-2-.86s-1.18-.51-1.84-.83a9.26,9.26,0,0,1-1.83-1.16,5.89,5.89,0,0,1-1.4-1.62,4.37,4.37,0,0,1-.56-2.25,4.52,4.52,0,0,1,.49-2.11,4.69,4.69,0,0,1,1.33-1.61,6,6,0,0,1,2-1,8.34,8.34,0,0,1,2.56-.37,10,10,0,0,1,1.7.13q.79.13,1.44.3t1.14.33a6.33,6.33,0,0,0,.78.21l-.17,4.47h-1.2l-.45-3.46a1.91,1.91,0,0,0-.47-.26,4.51,4.51,0,0,0-.76-.25,8.11,8.11,0,0,0-1-.19,7.16,7.16,0,0,0-1.15-.08,5.3,5.3,0,0,0-3.22.84,3.56,3.56,0,0,0-.75,4.14,3.71,3.71,0,0,0,1,1.14,8.83,8.83,0,0,0,1.54.93c.59.29,1.24.6,2,.92l2.08,1a11.5,11.5,0,0,1,1.92,1.19,5.91,5.91,0,0,1,1.4,1.56,4.06,4.06,0,0,1,.54,2.13,5,5,0,0,1-.47,2.08,5.74,5.74,0,0,1-1.38,1.83,6.71,6.71,0,0,1-2.2,1.3A8.26,8.26,0,0,1,202.34,63.22Z" transform="translate(-7.09 -5.61)"/><path class="cls-1" d="M210.48,68.38l2.12-.26V49.4L210.4,49V47.88l3.35-.39h.07l.45.39v1.71a8.44,8.44,0,0,1,.86-.77,6.32,6.32,0,0,1,1.14-.71,7,7,0,0,1,1.4-.52,6.19,6.19,0,0,1,1.64-.21,6,6,0,0,1,2.2.42,5.37,5.37,0,0,1,1.91,1.33,6.83,6.83,0,0,1,1.34,2.31,9.9,9.9,0,0,1,.51,3.36,9.53,9.53,0,0,1-.55,3.28,8.35,8.35,0,0,1-1.54,2.68,7.19,7.19,0,0,1-2.41,1.8,7.42,7.42,0,0,1-3.16.66c-.25,0-.52,0-.81,0s-.57,0-.85-.09-.54-.09-.8-.15a6.52,6.52,0,0,1-.69-.2l0,2.32v3l3.13.27v1.13h-7.16Zm8-19.44a5,5,0,0,0-1.29.16,6.12,6.12,0,0,0-1.14.42,5.74,5.74,0,0,0-.92.55,4.81,4.81,0,0,0-.65.58V61a1.31,1.31,0,0,0,.4.33,3.79,3.79,0,0,0,.72.31,7.69,7.69,0,0,0,1,.23,8.27,8.27,0,0,0,1.14.08,5.37,5.37,0,0,0,2.14-.41,4.59,4.59,0,0,0,1.72-1.26,6.32,6.32,0,0,0,1.15-2.14,10,10,0,0,0,.43-3,9,9,0,0,0-.35-2.85,5.6,5.6,0,0,0-1-1.93,3.89,3.89,0,0,0-1.5-1.1A4.75,4.75,0,0,0,218.51,48.94Z" transform="translate(-7.09 -5.61)"/><path class="cls-1" d="M227.18,62.91v-1l2.2-.18V49.4L227.19,49V47.88l3.32-.39h.07l.48.39v2.46h0a4.15,4.15,0,0,0,.31-.31l.57-.57c.24-.22.52-.45.84-.7a6.73,6.73,0,0,1,2.33-1.18,5.26,5.26,0,0,1,1.46-.2,3,3,0,0,1,.45,0,2.37,2.37,0,0,1,.34.09v2.06a2.16,2.16,0,0,0-.41-.14,2.73,2.73,0,0,0-.72-.09,7.43,7.43,0,0,0-1.7.19,7.64,7.64,0,0,0-2.45,1.06c-.31.21-.57.39-.78.56V61.71l3.64.18v1Z" transform="translate(-7.09 -5.61)"/><path class="cls-1" d="M239,62.91V61.82l2.46-.17V49.4L239.16,49V47.88l3.63-.39h.07l.47.39V61.65l2.46.17v1.09Zm3-18.34a1.11,1.11,0,0,1-.93-.42,1.55,1.55,0,0,1-.33-1,2.11,2.11,0,0,1,.09-.62A1.5,1.5,0,0,1,241,42a1.3,1.3,0,0,1,.46-.38,1.48,1.48,0,0,1,.65-.14h0a1.13,1.13,0,0,1,.56.13,1.26,1.26,0,0,1,.4.33,1.51,1.51,0,0,1,.25.47,1.82,1.82,0,0,1,.08.52,2.25,2.25,0,0,1-.1.64,1.56,1.56,0,0,1-.27.53,1.27,1.27,0,0,1-.46.36,1.5,1.5,0,0,1-.66.13Z" transform="translate(-7.09 -5.61)"/><path class="cls-1" d="M247.89,62.91V61.82l1.87-.19V49.4l-2.2-.44V47.88l3.35-.39H251l.48.39v1.27l0,.7a10.32,10.32,0,0,1,1.12-.81,13.39,13.39,0,0,1,1.46-.78,10,10,0,0,1,1.64-.59,5.89,5.89,0,0,1,1.62-.24,5.19,5.19,0,0,1,2.17.4,3,3,0,0,1,1.33,1.2,5.6,5.6,0,0,1,.65,2,19.32,19.32,0,0,1,.18,2.83v7.79l2.08.17v1.09h-5.91V61.82l1.92-.17V53.86a18.89,18.89,0,0,0-.11-2.14,4.07,4.07,0,0,0-.46-1.51,2.19,2.19,0,0,0-1-.9,3.93,3.93,0,0,0-1.67-.3,4.83,4.83,0,0,0-1.27.19,10.72,10.72,0,0,0-1.3.48c-.42.2-.83.41-1.21.64a10.53,10.53,0,0,0-1,.7V61.63l2,.19v1.09Z" transform="translate(-7.09 -5.61)"/><path class="cls-1" d="M271.88,57.49a7.1,7.1,0,0,1-2-.26,3.33,3.33,0,0,0-.94.93,2.2,2.2,0,0,0-.35,1.24,1.75,1.75,0,0,0,.21.89,1.44,1.44,0,0,0,.6.57,3.52,3.52,0,0,0,1,.29,9.07,9.07,0,0,0,1.35.08h3.59a7.33,7.33,0,0,1,2.15.28,3.53,3.53,0,0,1,1.4.76,2.68,2.68,0,0,1,.75,1.17,4.73,4.73,0,0,1,.22,1.5,4.17,4.17,0,0,1-.52,2,5.27,5.27,0,0,1-1.48,1.7,7.75,7.75,0,0,1-2.36,1.15,10.28,10.28,0,0,1-3.1.43h0a12,12,0,0,1-2.89-.31,6.65,6.65,0,0,1-2.14-.87,4.13,4.13,0,0,1-1.33-1.37,3.59,3.59,0,0,1-.45-1.8,4.13,4.13,0,0,1,.2-1.28,4.41,4.41,0,0,1,.5-1.1,4.87,4.87,0,0,1,.71-.89,5,5,0,0,1,.81-.64,2.46,2.46,0,0,1-.68-.83,2.74,2.74,0,0,1-.23-1.15,3.62,3.62,0,0,1,.48-1.85,4.68,4.68,0,0,1,1.32-1.42,4.75,4.75,0,0,1-1.82-1.65,4.95,4.95,0,0,1-.15-4.73,5.06,5.06,0,0,1,1.38-1.63,6.05,6.05,0,0,1,1.92-1,6.69,6.69,0,0,1,2.16-.35h0a8.41,8.41,0,0,1,2.16.27,5.21,5.21,0,0,1,1.79.85,4.75,4.75,0,0,1,.45-.31,7.52,7.52,0,0,1,.69-.33,6.31,6.31,0,0,1,.89-.25,4.14,4.14,0,0,1,1-.11h1v1.83H277a4.87,4.87,0,0,1,.62,1.2,4.64,4.64,0,0,1,.22,1.5,5.11,5.11,0,0,1-.48,2.24A5.47,5.47,0,0,1,276.08,56a5.85,5.85,0,0,1-1.9,1.1,6.72,6.72,0,0,1-2.29.39ZM271.61,63a10.8,10.8,0,0,1-1.56-.11,6,6,0,0,1-1.31-.33,4.17,4.17,0,0,0-.85,1.19,3.77,3.77,0,0,0-.36,1.7,3.53,3.53,0,0,0,.3,1.48,2.88,2.88,0,0,0,.91,1.12,4.65,4.65,0,0,0,1.57.72,8.59,8.59,0,0,0,2.22.25h0a9.86,9.86,0,0,0,2.26-.24,5.88,5.88,0,0,0,1.76-.68A3.38,3.38,0,0,0,277.7,67a2.65,2.65,0,0,0,.4-1.44,5,5,0,0,0-.11-1.07,1.6,1.6,0,0,0-.48-.81,2.58,2.58,0,0,0-1.05-.51,7.47,7.47,0,0,0-1.82-.18Zm.5-6.77h0a3.65,3.65,0,0,0,2.79-1,4,4,0,0,0,.93-2.89,3.49,3.49,0,0,0-1-2.78,4.08,4.08,0,0,0-2.78-.87h0a5.78,5.78,0,0,0-1.46.17,3,3,0,0,0-1.22.6,3,3,0,0,0-.84,1.12,4.48,4.48,0,0,0-.31,1.76,5.1,5.1,0,0,0,.23,1.53,3.26,3.26,0,0,0,.7,1.23,3.48,3.48,0,0,0,1.21.81A4.59,4.59,0,0,0,272.11,56.18Z" transform="translate(-7.09 -5.61)"/><path class="cls-1" d="M199.09,94.23V93.14l3.62-.18V75.09l-5.48.15-.82,5.58h-1.33l.45-6.83H212l.31,6.83H211l-.71-5.58-5.56-.15V93l4,.19v1.09Z" transform="translate(-7.09 -5.61)"/><path class="cls-1" d="M220.57,94.53a6.43,6.43,0,0,1-2.8-.58,5.72,5.72,0,0,1-2-1.64,7.42,7.42,0,0,1-1.24-2.52,11.55,11.55,0,0,1-.42-3.21,9.22,9.22,0,0,1,.53-3.18,7.71,7.71,0,0,1,1.45-2.5A6.54,6.54,0,0,1,221,78.7a5,5,0,0,1,3.71,1.38,5.77,5.77,0,0,1,1.43,4c0,.5,0,.94,0,1.31a4.79,4.79,0,0,1-.12,1h-9.87v.22a1.69,1.69,0,0,0,0,.23,9.13,9.13,0,0,0,.46,2.78,6.2,6.2,0,0,0,1.1,2,4.34,4.34,0,0,0,1.57,1.17,4.65,4.65,0,0,0,1.9.39,6.26,6.26,0,0,0,1.2-.12,9,9,0,0,0,1.19-.32,6.92,6.92,0,0,0,1.07-.47,4,4,0,0,0,.81-.56l.4.91a5.34,5.34,0,0,1-1,.75,8,8,0,0,1-1.28.61,10.17,10.17,0,0,1-1.46.41A8.8,8.8,0,0,1,220.57,94.53Zm-.1-14.48a4.45,4.45,0,0,0-1.62.28,3.13,3.13,0,0,0-1.31.89,4.7,4.7,0,0,0-.93,1.59,8.55,8.55,0,0,0-.45,2.4H224c0-.2,0-.41,0-.62s0-.41,0-.61a6.07,6.07,0,0,0-.2-1.59,3.16,3.16,0,0,0-.65-1.23,2.86,2.86,0,0,0-1.11-.81A3.92,3.92,0,0,0,220.47,80.05Z" transform="translate(-7.09 -5.61)"/><path class="cls-1" d="M228.53,86.86a9.31,9.31,0,0,1,.48-3.07,7.93,7.93,0,0,1,1.45-2.61,7.1,7.1,0,0,1,2.37-1.8,7.24,7.24,0,0,1,3.23-.68,8.56,8.56,0,0,1,1.12.08q.56.09,1,.21c.33.08.64.17.91.26a5.11,5.11,0,0,1,.65.26l-.1,3.65h-1.21L238,80.64a2.43,2.43,0,0,0-1-.55,4.72,4.72,0,0,0-1.5-.21,4.63,4.63,0,0,0-2,.43A4.54,4.54,0,0,0,232,81.55a6,6,0,0,0-1,1.94,8.14,8.14,0,0,0-.37,2.55,10.67,10.67,0,0,0,.37,3.1,6.45,6.45,0,0,0,1.07,2.2,4.28,4.28,0,0,0,1.6,1.32,4.69,4.69,0,0,0,2,.44,6.43,6.43,0,0,0,1.24-.12,7.73,7.73,0,0,0,1.15-.29,7.56,7.56,0,0,0,1-.4,4.4,4.4,0,0,0,.74-.43l.39.75a4.94,4.94,0,0,1-.94.73A7.34,7.34,0,0,1,238,94a8,8,0,0,1-1.37.42,7,7,0,0,1-4.27-.44,6.13,6.13,0,0,1-2.09-1.64A7.17,7.17,0,0,1,229,89.86,10.41,10.41,0,0,1,228.53,86.86Z" transform="translate(-7.09 -5.61)"/><path class="cls-1" d="M241.76,94.23V93.14l1.71-.18V73.51L241,73.26v-.89l3.85-.43h.07l.47.32v6.56L245.33,81a9.23,9.23,0,0,1,.94-.67,10.28,10.28,0,0,1,1.37-.76,12.52,12.52,0,0,1,1.63-.61,6.43,6.43,0,0,1,1.71-.25,5.32,5.32,0,0,1,2.15.37,3,3,0,0,1,1.34,1.15,5.12,5.12,0,0,1,.7,2,17.42,17.42,0,0,1,.2,2.9V93l2,.18v1.09h-5.89V93.14l2-.18V85.17a16.53,16.53,0,0,0-.12-2.14,4,4,0,0,0-.47-1.51,2.09,2.09,0,0,0-1-.89,4,4,0,0,0-1.69-.3,4.45,4.45,0,0,0-1.27.19,9.21,9.21,0,0,0-1.3.47,10.13,10.13,0,0,0-1.22.65,11.67,11.67,0,0,0-1,.7V93l2.06.18v1.09Z" transform="translate(-7.09 -5.61)"/><path class="cls-1" d="M259.49,94.23V93.14l1.86-.19V80.72l-2.2-.44V79.2l3.36-.4h.06l.48.4v1.27l0,.7a8.85,8.85,0,0,1,1.12-.81,13.42,13.42,0,0,1,1.46-.79,12.77,12.77,0,0,1,1.64-.59,6.39,6.39,0,0,1,1.62-.23,5.09,5.09,0,0,1,2.18.4,3,3,0,0,1,1.32,1.2,5.35,5.35,0,0,1,.66,2,19.27,19.27,0,0,1,.18,2.82V93l2.07.18v1.09h-5.9V93.14l1.91-.18V85.17a18.83,18.83,0,0,0-.11-2.13,4.07,4.07,0,0,0-.46-1.51,2.19,2.19,0,0,0-1-.9,3.9,3.9,0,0,0-1.67-.3,4.5,4.5,0,0,0-1.27.19,8.06,8.06,0,0,0-1.29.48,11.72,11.72,0,0,0-1.22.64c-.38.24-.72.47-1,.7V93l2,.19v1.09Z" transform="translate(-7.09 -5.61)"/><path class="cls-1" d="M276.73,86.56a8.63,8.63,0,0,1,.6-3.3,7.85,7.85,0,0,1,1.57-2.47,6.61,6.61,0,0,1,2.22-1.55,6.21,6.21,0,0,1,2.52-.54,6.77,6.77,0,0,1,3.13.65,5.7,5.7,0,0,1,2.07,1.75A7.59,7.59,0,0,1,290,83.65a13,13,0,0,1,.35,3,8.57,8.57,0,0,1-.6,3.29,7.85,7.85,0,0,1-1.57,2.47A6.89,6.89,0,0,1,285.94,94a6.5,6.5,0,0,1-2.54.53,6.66,6.66,0,0,1-3.11-.65,5.7,5.7,0,0,1-2.07-1.75,7.59,7.59,0,0,1-1.14-2.55A12.43,12.43,0,0,1,276.73,86.56Zm6.78,6.58a4.52,4.52,0,0,0,1.94-.41,3.76,3.76,0,0,0,1.46-1.2,5.87,5.87,0,0,0,.93-2,10.79,10.79,0,0,0,.32-2.76,13,13,0,0,0-.24-2.54,7,7,0,0,0-.8-2.14,4.2,4.2,0,0,0-1.43-1.47,3.93,3.93,0,0,0-2.15-.55,4.64,4.64,0,0,0-1.94.4,3.81,3.81,0,0,0-1.45,1.2,5.87,5.87,0,0,0-.93,2,10.39,10.39,0,0,0-.32,2.77,13.09,13.09,0,0,0,.24,2.56,6.65,6.65,0,0,0,.8,2.14,4.25,4.25,0,0,0,1.43,1.46A4,4,0,0,0,283.51,93.14Z" transform="translate(-7.09 -5.61)"/><path class="cls-1" d="M292.12,94.23V93.14l2.47-.19V73.51l-2.39-.25v-.89l3.83-.44h0l.47.33V93l2.64.19v1.09Z" transform="translate(-7.09 -5.61)"/><path class="cls-1" d="M301.1,86.56a8.63,8.63,0,0,1,.6-3.3,7.87,7.87,0,0,1,1.58-2.47,6.67,6.67,0,0,1,2.21-1.55A6.29,6.29,0,0,1,308,78.7a6.73,6.73,0,0,1,3.12.65,5.7,5.7,0,0,1,2.07,1.75,7.22,7.22,0,0,1,1.14,2.55,12.45,12.45,0,0,1,.36,3,8.57,8.57,0,0,1-.6,3.29,7.87,7.87,0,0,1-1.58,2.47A6.79,6.79,0,0,1,310.31,94a6.45,6.45,0,0,1-2.53.53,6.73,6.73,0,0,1-3.12-.65,5.67,5.67,0,0,1-2.06-1.75,7.22,7.22,0,0,1-1.14-2.55A12.43,12.43,0,0,1,301.1,86.56Zm6.79,6.58a4.55,4.55,0,0,0,1.94-.41,3.91,3.91,0,0,0,1.46-1.2,5.67,5.67,0,0,0,.92-2,10.34,10.34,0,0,0,.33-2.76,12.23,12.23,0,0,0-.25-2.54,7,7,0,0,0-.79-2.14,4.29,4.29,0,0,0-1.43-1.47,4,4,0,0,0-2.16-.55,4.59,4.59,0,0,0-1.93.4,3.91,3.91,0,0,0-1.46,1.2,5.67,5.67,0,0,0-.92,2,10.36,10.36,0,0,0-.33,2.77,12.35,12.35,0,0,0,.25,2.56,6.88,6.88,0,0,0,.79,2.14,4.34,4.34,0,0,0,1.43,1.46A4,4,0,0,0,307.89,93.14Z" transform="translate(-7.09 -5.61)"/><path class="cls-1" d="M323.34,88.8a7,7,0,0,1-1.95-.25,3.35,3.35,0,0,0-.95.92,2.25,2.25,0,0,0-.34,1.25,1.86,1.86,0,0,0,.2.89,1.38,1.38,0,0,0,.61.56,3.14,3.14,0,0,0,1,.3,10.71,10.71,0,0,0,1.36.08h3.59a7,7,0,0,1,2.15.28,3.61,3.61,0,0,1,1.39.75,2.81,2.81,0,0,1,.75,1.17,4.83,4.83,0,0,1,.23,1.51,4.17,4.17,0,0,1-.52,2,5.19,5.19,0,0,1-1.49,1.7,7.69,7.69,0,0,1-2.35,1.15,10.65,10.65,0,0,1-3.1.43h0a12.55,12.55,0,0,1-2.89-.31,6.44,6.44,0,0,1-2.14-.88A3.86,3.86,0,0,1,317.53,99a3.58,3.58,0,0,1-.45-1.79,4.13,4.13,0,0,1,.19-1.28,4.9,4.9,0,0,1,.51-1.11,4.72,4.72,0,0,1,.71-.88,4.63,4.63,0,0,1,.81-.64,2.41,2.41,0,0,1-.68-.84,2.55,2.55,0,0,1-.24-1.14,3.53,3.53,0,0,1,.49-1.85,4.56,4.56,0,0,1,1.32-1.42,4.7,4.7,0,0,1-1.82-1.66,4.93,4.93,0,0,1-.15-4.72,5,5,0,0,1,1.37-1.63,6.3,6.3,0,0,1,1.92-1,7.07,7.07,0,0,1,2.17-.34h0a8.41,8.41,0,0,1,2.16.27,5.28,5.28,0,0,1,1.79.84,3.14,3.14,0,0,1,.45-.3,4,4,0,0,1,.69-.33,6.28,6.28,0,0,1,.89-.26,4.65,4.65,0,0,1,1-.1h1v1.83H328.5a4.38,4.38,0,0,1,.61,1.2,4.63,4.63,0,0,1,.23,1.5,5,5,0,0,1-.49,2.24,5.25,5.25,0,0,1-1.3,1.72,5.8,5.8,0,0,1-1.9,1.11,7,7,0,0,1-2.29.38Zm-.26,5.47a11.05,11.05,0,0,1-1.57-.11,6.12,6.12,0,0,1-1.31-.33,4.37,4.37,0,0,0-.85,1.19,3.76,3.76,0,0,0-.36,1.69,3.57,3.57,0,0,0,.3,1.49,2.91,2.91,0,0,0,.92,1.12,4.51,4.51,0,0,0,1.56.72,8.59,8.59,0,0,0,2.22.25h0a9.86,9.86,0,0,0,2.26-.24,6.27,6.27,0,0,0,1.76-.68,3.47,3.47,0,0,0,1.13-1.09,2.75,2.75,0,0,0,.4-1.45,4.35,4.35,0,0,0-.12-1.06A1.47,1.47,0,0,0,329,95a2.45,2.45,0,0,0-1.05-.51,7.32,7.32,0,0,0-1.81-.18Zm.5-6.77h0a3.68,3.68,0,0,0,2.79-1,4,4,0,0,0,.93-2.89,3.5,3.5,0,0,0-1-2.79,4.08,4.08,0,0,0-2.78-.87h0a5.73,5.73,0,0,0-1.46.18A2.9,2.9,0,0,0,320,81.87a4.27,4.27,0,0,0-.31,1.76,4.7,4.7,0,0,0,.23,1.52,3.12,3.12,0,0,0,.7,1.23,3.28,3.28,0,0,0,1.21.82A4.59,4.59,0,0,0,323.58,87.5Z" transform="translate(-7.09 -5.61)"/><path class="cls-1" d="M335.18,101a4.56,4.56,0,0,1-.72-.06,2.11,2.11,0,0,1-.53-.13V98.94l.24.07.33,0,.37,0h.35a4.48,4.48,0,0,0,1.15-.15,2.9,2.9,0,0,0,1.11-.68,6,6,0,0,0,1.12-1.47,15.34,15.34,0,0,0,1.13-2.56h-1.05l-5.36-13.76L332,80.16v-1h5.76v1l-2.21.28,3,8.4,1.49,4.59,1.45-4.61,2.56-8.37-2-.29v-1h5.13v1l-1.46.29q-.87,2.63-1.51,4.62c-.44,1.34-.82,2.5-1.15,3.49s-.6,1.84-.83,2.53-.42,1.27-.58,1.74-.29.83-.4,1.12-.19.51-.26.68c-.43,1.05-.82,2-1.19,2.78a9.26,9.26,0,0,1-1.19,2,4.38,4.38,0,0,1-1.47,1.2A4.54,4.54,0,0,1,335.18,101Z" transform="translate(-7.09 -5.61)"/></g></svg>